<svg width="162" height="21" viewBox="0 0 162 21" fill="none" xmlns="http://www.w3.org/2000/svg">
<path d="M3.45312 19C2.66379 19 2.06646 18.8933 1.66113 18.68C1.27713 18.4667 1.02113 18.2213 0.893125 17.944C0.765125 17.6667 0.701125 17.4213 0.701125 17.208C0.701125 16.9947 0.701125 16.888 0.701125 16.888L0.317125 3C0.317125 3 0.306458 2.89333 0.285125 2.68C0.263792 2.46667 0.306458 2.22133 0.413125 1.944C0.519792 1.64533 0.743792 1.38933 1.08513 1.176C1.42646 0.941332 1.95979 0.823999 2.68513 0.823999C3.64513 0.802666 4.37046 0.941333 4.86113 1.24C5.35179 1.51733 5.67179 1.80533 5.82113 2.104C5.99179 2.38133 6.07713 2.52 6.07713 2.52L9.75713 9.208C9.75713 9.208 9.84246 9.016 10.0131 8.632C10.2051 8.22667 10.4291 7.72533 10.6851 7.128C10.9625 6.53067 11.2398 5.92267 11.5171 5.304C11.7945 4.68533 12.0398 4.152 12.2531 3.704C12.4665 3.23467 12.6051 2.936 12.6691 2.808C12.7758 2.59467 12.9678 2.30667 13.2451 1.944C13.5225 1.56 13.9171 1.208 14.4291 0.887999C14.9625 0.567999 15.6558 0.397333 16.5091 0.375999C17.1491 0.354666 17.6398 0.429333 17.9811 0.599998C18.3225 0.749332 18.5571 0.930666 18.6851 1.144C18.8345 1.35733 18.9198 1.54933 18.9411 1.72C18.9625 1.89067 18.9731 1.976 18.9731 1.976C18.9731 1.976 18.9731 2.25333 18.9731 2.808C18.9731 3.34133 18.9731 4.056 18.9731 4.952C18.9945 5.848 19.0051 6.82933 19.0051 7.896C19.0051 8.96267 19.0051 10.04 19.0051 11.128C19.0051 12.1947 19.0051 13.176 19.0051 14.072C19.0265 14.968 19.0371 15.6933 19.0371 16.248C19.0371 16.8027 19.0371 17.0907 19.0371 17.112C19.0371 17.1333 19.0265 17.24 19.0051 17.432C19.0051 17.624 18.9305 17.848 18.7811 18.104C18.6318 18.3387 18.3651 18.552 17.9811 18.744C17.6185 18.9147 17.0745 19 16.3491 19C15.6238 19 15.0691 18.9253 14.6851 18.776C14.3225 18.6053 14.0665 18.424 13.9171 18.232C13.7678 18.0187 13.6825 17.8373 13.6611 17.688C13.6398 17.5387 13.6291 17.464 13.6291 17.464C13.6291 17.464 13.6291 17.2827 13.6291 16.92C13.6291 16.536 13.6291 16.0667 13.6291 15.512C13.6505 14.936 13.6611 14.3707 13.6611 13.816C13.6825 13.24 13.6931 12.76 13.6931 12.376C13.6931 11.992 13.6931 11.8 13.6931 11.8L13.9491 7.224L12.2851 10.776C12.2851 10.776 12.2211 10.8933 12.0931 11.128C11.9865 11.3627 11.7731 11.5973 11.4531 11.832C11.1331 12.0667 10.6531 12.1947 10.0131 12.216C9.39446 12.2373 8.90379 12.152 8.54113 11.96C8.19979 11.7467 7.95446 11.544 7.80513 11.352C7.67713 11.1387 7.61313 11.032 7.61313 11.032L5.53313 7.224C5.53313 7.224 5.54379 7.48 5.56513 7.992C5.60779 8.48267 5.65046 9.13333 5.69313 9.944C5.73579 10.7333 5.77846 11.576 5.82113 12.472C5.86379 13.3467 5.89579 14.1787 5.91713 14.968C5.95979 15.736 5.99179 16.3547 6.01313 16.824C6.03446 17.4 5.91713 17.848 5.66113 18.168C5.40513 18.4667 5.10646 18.68 4.76513 18.808C4.42379 18.9147 4.11446 18.9787 3.83713 19C3.58113 19 3.45312 19 3.45312 19ZM23.3809 0.504C23.3809 0.504 23.5195 0.525333 23.7969 0.567999C24.0742 0.589332 24.3835 0.685332 24.7249 0.855999C25.0875 1.00533 25.3969 1.28267 25.6529 1.688C25.9089 2.072 26.0155 2.63733 25.9729 3.384C25.9515 3.87467 25.9195 4.536 25.8769 5.368C25.8555 6.17867 25.8449 7.07467 25.8449 8.056C25.8449 9.016 25.8662 9.976 25.9089 10.936C25.9729 11.896 26.0689 12.7813 26.1969 13.592C26.3462 14.4027 26.5382 15.0533 26.7729 15.544C27.0289 16.0133 27.3382 16.2373 27.7009 16.216C28.0849 16.1947 28.3729 15.9387 28.5649 15.448C28.7569 14.936 28.8849 14.296 28.9489 13.528C29.0129 12.7387 29.0342 11.9067 29.0129 11.032C28.9915 10.1573 28.9489 9.32533 28.8849 8.536C28.8209 7.72533 28.7569 7.064 28.6929 6.552C28.6502 6.01867 28.6182 5.72 28.5969 5.656C28.5755 5.57067 28.5435 5.38933 28.5009 5.112C28.4582 4.83467 28.4795 4.536 28.5649 4.216C28.6502 3.896 28.8635 3.608 29.2049 3.352C29.5675 3.096 30.1329 2.936 30.9009 2.872C31.6689 2.808 32.2662 2.904 32.6929 3.16C33.1195 3.416 33.4182 3.72533 33.5889 4.088C33.7809 4.45067 33.8875 4.77067 33.9089 5.048C33.9515 5.32533 33.9729 5.464 33.9729 5.464C33.9729 5.464 34.0049 5.70933 34.0689 6.2C34.1542 6.69067 34.2182 7.34133 34.2609 8.152C34.3249 8.94133 34.3249 9.816 34.2609 10.776C34.2182 11.736 34.0795 12.7067 33.8449 13.688C33.6315 14.648 33.2795 15.5333 32.7889 16.344C32.2982 17.1333 31.6369 17.7733 30.8049 18.264C29.9729 18.7547 28.9275 19 27.6689 19C26.4102 19 25.3435 18.744 24.4689 18.232C23.6155 17.6987 22.9115 17.0053 22.3569 16.152C21.8235 15.2773 21.4075 14.3067 21.1089 13.24C20.8315 12.1733 20.6395 11.0853 20.5329 9.976C20.4475 8.84533 20.4049 7.77867 20.4049 6.776C20.4262 5.77333 20.4582 4.89867 20.5009 4.152C20.5649 3.40533 20.6075 2.872 20.6289 2.552C20.6715 1.99733 20.8315 1.58133 21.1089 1.304C21.3862 1.00533 21.6955 0.802666 22.0369 0.695999C22.3995 0.589333 22.7089 0.535999 22.9649 0.535999C23.2422 0.514666 23.3809 0.504 23.3809 0.504ZM45.8056 6.232C45.0803 6.232 44.5256 6.14667 44.1416 5.976C43.7576 5.784 43.4803 5.57067 43.3096 5.336C43.1603 5.10133 43.075 4.888 43.0536 4.696C43.0323 4.48267 43.0216 4.35467 43.0216 4.312C43.0216 4.20533 42.979 4.03467 42.8936 3.8C42.8296 3.544 42.6163 3.416 42.2536 3.416C41.6563 3.416 41.123 3.59733 40.6536 3.96C40.2056 4.32267 39.9603 4.856 39.9176 5.56C39.875 6.264 40.0563 6.872 40.4616 7.384C40.867 7.896 41.667 8.16267 42.8616 8.184C43.459 8.184 44.0883 8.26933 44.7496 8.44C45.411 8.61067 46.0296 8.888 46.6056 9.272C47.203 9.63467 47.6723 10.136 48.0136 10.776C48.3763 11.3947 48.5576 12.1733 48.5576 13.112C48.5363 14.9893 48.035 16.44 47.0536 17.464C46.0723 18.488 44.4403 19 42.1576 19C40.643 19 39.427 18.8187 38.5096 18.456C37.5923 18.072 36.9203 17.624 36.4936 17.112C36.0883 16.6 35.875 16.1413 35.8536 15.736C35.8323 15.3307 35.8536 14.936 35.9176 14.552C36.003 14.168 36.227 13.8373 36.5896 13.56C36.9736 13.2827 37.5816 13.112 38.4136 13.048C39.267 12.984 39.875 13.0587 40.2376 13.272C40.6003 13.464 40.8243 13.688 40.9096 13.944C41.0163 14.2 41.0696 14.36 41.0696 14.424C41.0696 14.488 41.091 14.648 41.1336 14.904C41.1976 15.1387 41.3043 15.3733 41.4536 15.608C41.6243 15.8213 41.859 15.928 42.1576 15.928C42.6056 15.928 42.9896 15.7467 43.3096 15.384C43.6296 15.0213 43.8323 14.4347 43.9176 13.624C44.067 12.024 43.267 11.224 41.5176 11.224C41.091 11.224 40.5363 11.16 39.8536 11.032C39.1923 10.8827 38.531 10.6267 37.8696 10.264C37.2083 9.88 36.6536 9.34667 36.2056 8.664C35.7576 7.98133 35.5443 7.08533 35.5656 5.976C35.587 4.86667 35.7896 3.96 36.1736 3.256C36.5576 2.53067 37.059 1.976 37.6776 1.592C38.3176 1.18667 39.011 0.898666 39.7576 0.727999C40.5256 0.557332 41.283 0.461332 42.0296 0.439999C43.0323 0.418666 43.9923 0.535999 44.9096 0.792C45.8483 1.048 46.627 1.44267 47.2456 1.976C47.8856 2.488 48.2483 3.16 48.3336 3.992C48.3976 4.61067 48.3016 5.08 48.0456 5.4C47.811 5.69867 47.5123 5.912 47.1496 6.04C46.8083 6.14667 46.499 6.21067 46.2216 6.232C45.9443 6.232 45.8056 6.232 45.8056 6.232ZM51.0241 17.368C50.9601 16.6427 50.9175 15.736 50.8961 14.648C50.8748 13.5387 50.8641 12.3547 50.8641 11.096C50.8641 9.83733 50.8748 8.62133 50.8961 7.448C50.9388 6.25333 50.9815 5.19733 51.0241 4.28C51.0668 3.36267 51.1095 2.70133 51.1521 2.296C51.2161 1.784 51.3975 1.4 51.6961 1.144C51.9948 0.866666 52.3255 0.674665 52.6881 0.567999C53.0721 0.461332 53.3921 0.407999 53.6481 0.407999C53.9255 0.386666 54.0641 0.375999 54.0641 0.375999C54.0641 0.375999 54.1921 0.397333 54.4481 0.439999C54.7255 0.461332 55.0241 0.514665 55.3441 0.599998C55.6641 0.685332 55.8881 0.834665 56.0161 1.048C56.2935 1.47467 56.4215 1.89067 56.4001 2.296C56.4001 2.68 56.3788 3.18133 56.3361 3.8C56.2081 5.4 56.1335 6.968 56.1121 8.504C56.0908 10.04 56.0908 11.4373 56.1121 12.696C56.1335 13.9547 56.1548 14.9573 56.1761 15.704C56.2188 16.4507 56.2401 16.824 56.2401 16.824C56.2401 16.824 56.2295 16.9413 56.2081 17.176C56.2081 17.3893 56.1441 17.6347 56.0161 17.912C55.8881 18.1893 55.6428 18.4453 55.2801 18.68C54.9175 18.8933 54.3841 19 53.6801 19C52.9761 19 52.4321 18.9253 52.0481 18.776C51.6855 18.6053 51.4295 18.4133 51.2801 18.2C51.1521 17.9653 51.0775 17.7733 51.0561 17.624C51.0348 17.4533 51.0241 17.368 51.0241 17.368ZM71.8694 14.872C71.8694 14.872 71.8374 15.0107 71.7734 15.288C71.7094 15.5653 71.5707 15.9067 71.3574 16.312C71.144 16.7173 70.8134 17.1333 70.3654 17.56C69.9387 17.9653 69.352 18.3067 68.6054 18.584C67.8587 18.8613 66.92 19 65.7894 19C64.424 19 63.304 18.7867 62.4294 18.36C61.576 17.9333 60.904 17.3573 60.4134 16.632C59.9227 15.8853 59.5707 15.064 59.3574 14.168C59.144 13.2507 59.016 12.3013 58.9734 11.32C58.952 10.3387 58.9627 9.38933 59.0054 8.472C59.048 7.53333 59.08 6.69067 59.1014 5.944C59.1227 4.81333 59.3254 3.90667 59.7094 3.224C60.1147 2.52 60.6054 1.98667 61.1814 1.624C61.7787 1.24 62.3974 0.973332 63.0374 0.823999C63.6774 0.674665 64.2534 0.589332 64.7654 0.567999C65.8107 0.503998 66.8667 0.685332 67.9334 1.112C69 1.53867 69.864 2.328 70.5254 3.48C70.8667 4.056 70.9627 4.51467 70.8134 4.856C70.6854 5.176 70.44 5.41067 70.0774 5.56C69.736 5.70933 69.384 5.80533 69.0214 5.848C68.6587 5.89067 68.424 5.912 68.3174 5.912C67.6347 5.912 67.112 5.816 66.7494 5.624C66.408 5.432 66.1627 5.208 66.0134 4.952C65.8854 4.67467 65.8214 4.42933 65.8214 4.216C65.8214 4.04533 65.768 3.87467 65.6614 3.704C65.576 3.512 65.4587 3.384 65.3094 3.32C65.1814 3.256 65.0427 3.33067 64.8934 3.544C64.7654 3.75733 64.6587 4.17333 64.5734 4.792C64.5094 5.28267 64.4667 5.93333 64.4454 6.744C64.4454 7.53333 64.456 8.376 64.4774 9.272C64.4987 10.1467 64.52 10.9787 64.5414 11.768C64.584 12.5573 64.616 13.208 64.6374 13.72C64.68 14.2107 64.7014 14.456 64.7014 14.456C64.7014 14.456 64.7227 14.616 64.7654 14.936C64.8294 15.256 64.9467 15.576 65.1174 15.896C65.3094 16.216 65.5867 16.3867 65.9494 16.408C66.2267 16.4293 66.44 16.344 66.5894 16.152C66.76 15.9387 66.8774 15.704 66.9414 15.448C67.0267 15.1707 67.08 14.936 67.1014 14.744C67.1227 14.5307 67.1334 14.424 67.1334 14.424C67.1334 14.424 67.1227 14.3387 67.1014 14.168C67.1014 13.9973 67.1547 13.8053 67.2614 13.592C67.368 13.3573 67.592 13.1653 67.9334 13.016C68.2747 12.8453 68.7974 12.7707 69.5014 12.792C70.2054 12.8133 70.728 12.9307 71.0694 13.144C71.4107 13.336 71.6347 13.5707 71.7414 13.848C71.848 14.104 71.8907 14.3387 71.8694 14.552C71.8694 14.7653 71.8694 14.872 71.8694 14.872ZM76.3274 1.72C76.306 1.72 76.338 1.60267 76.4234 1.368C76.53 1.112 76.7647 0.866666 77.1274 0.632C77.49 0.397333 78.0874 0.269332 78.9194 0.247999C79.666 0.226666 80.2314 0.322666 80.6154 0.535999C80.9994 0.727999 81.2554 0.919999 81.3834 1.112C81.5327 1.304 81.6074 1.4 81.6074 1.4C81.6074 1.4 81.7247 1.67733 81.9594 2.232C82.194 2.78667 82.514 3.52267 82.9194 4.44C83.3247 5.336 83.7727 6.33867 84.2634 7.448C84.754 8.55733 85.2447 9.688 85.7354 10.84C86.2474 11.9707 86.7167 13.0373 87.1434 14.04C87.5914 15.0213 87.9647 15.8533 88.2634 16.536C88.562 17.1973 88.754 17.6133 88.8394 17.784C89.0314 18.1893 89.138 18.4773 89.1594 18.648C89.1807 18.8187 89.17 18.936 89.1274 19C89.106 19.0427 89.0954 19.0747 89.0954 19.096C88.946 19.3947 88.6474 19.6507 88.1994 19.864C87.7727 20.0987 87.25 20.2267 86.6314 20.248C85.778 20.2693 85.1594 20.1733 84.7754 19.96C84.3914 19.768 84.1354 19.5653 84.0074 19.352C83.9007 19.16 83.858 19.0747 83.8794 19.096C83.8794 19.096 83.762 18.8507 83.5274 18.36C83.314 17.8693 83.058 17.2827 82.7594 16.6C82.4607 15.896 82.1834 15.256 81.9274 14.68C81.9274 14.68 81.778 14.68 81.4794 14.68C81.202 14.68 80.8714 14.68 80.4874 14.68C80.1034 14.68 79.762 14.68 79.4634 14.68C79.186 14.68 79.0474 14.68 79.0474 14.68C78.962 14.9787 78.8767 15.352 78.7914 15.8C78.706 16.2267 78.6314 16.6107 78.5674 16.952C78.5034 17.2933 78.4714 17.464 78.4714 17.464C78.4714 17.464 78.418 17.592 78.3114 17.848C78.226 18.104 77.9807 18.36 77.5754 18.616C77.17 18.872 76.498 19 75.5594 19C74.8554 19 74.322 18.9253 73.9594 18.776C73.618 18.6053 73.3834 18.4133 73.2554 18.2C73.1487 17.9867 73.0954 17.8053 73.0954 17.656C73.0954 17.4853 73.0954 17.4 73.0954 17.4C73.138 17.1867 73.2234 16.7493 73.3514 16.088C73.5007 15.4053 73.6714 14.5947 73.8634 13.656C74.0767 12.696 74.29 11.6827 74.5034 10.616C74.738 9.54933 74.962 8.49333 75.1754 7.448C75.3887 6.40267 75.5807 5.45333 75.7514 4.6C75.922 3.72533 76.0607 3.032 76.1674 2.52C76.274 1.98667 76.3274 1.72 76.3274 1.72ZM79.6874 6.776C79.666 6.86133 79.6447 7.032 79.6234 7.288L79.4954 8.184C79.4527 8.67467 79.3994 9.19733 79.3354 9.752C79.2714 10.3067 79.2074 10.8293 79.1434 11.32C79.1007 11.576 79.0687 11.736 79.0474 11.8H79.4634C79.7194 11.8 79.9967 11.7893 80.2954 11.768C80.594 11.7467 80.8607 11.736 81.0954 11.736C81.01 11.5653 80.9354 11.352 80.8714 11.096C80.8287 10.8187 80.7754 10.5627 80.7114 10.328C80.5834 9.83733 80.434 9.32533 80.2634 8.792C80.114 8.25867 79.9754 7.75733 79.8474 7.288C79.7834 7.032 79.73 6.86133 79.6874 6.776ZM97.2909 14.52C97.3122 14.52 97.5042 14.52 97.8669 14.52C98.2295 14.4987 98.6775 14.488 99.2109 14.488C99.7442 14.4667 100.267 14.456 100.779 14.456C101.312 14.4347 101.76 14.424 102.123 14.424C102.486 14.4027 102.667 14.392 102.667 14.392C102.667 14.392 102.784 14.392 103.019 14.392C103.254 14.392 103.531 14.4347 103.851 14.52C104.171 14.584 104.448 14.7333 104.683 14.968C104.939 15.2027 105.078 15.5653 105.099 16.056C105.12 16.5253 104.982 16.8987 104.683 17.176C104.406 17.432 104.064 17.6133 103.659 17.72C103.275 17.8053 102.923 17.8587 102.603 17.88C102.304 17.9013 102.155 17.912 102.155 17.912C102.155 17.912 101.931 17.9333 101.483 17.976C101.056 17.9973 100.491 18.0507 99.7869 18.136C99.0829 18.2213 98.3149 18.3387 97.4829 18.488C96.6509 18.616 95.8509 18.7867 95.0829 19C94.3149 19.2133 93.6749 19.288 93.1629 19.224C92.6722 19.1813 92.2882 19.0747 92.0109 18.904C91.7335 18.712 91.5309 18.52 91.4029 18.328C91.2962 18.1147 91.2429 17.976 91.2429 17.912C91.2215 17.7627 91.2642 17.5813 91.3709 17.368C91.4775 17.1333 91.6802 16.9733 91.9789 16.888C92.0855 16.8667 92.1389 16.568 92.1389 15.992C92.1389 15.3947 92.0962 14.6373 92.0109 13.72C91.9469 12.7813 91.8509 11.768 91.7229 10.68C91.5949 9.592 91.4455 8.51467 91.2749 7.448C91.1255 6.38133 90.9762 5.432 90.8269 4.6C90.6775 3.768 90.5282 3.14933 90.3789 2.744C90.1655 2.12533 90.1442 1.64533 90.3149 1.304C90.4855 0.962666 90.7202 0.717333 91.0189 0.567999C91.3389 0.397332 91.6269 0.290665 91.8829 0.247999C92.1602 0.205333 92.2989 0.184 92.2989 0.184C92.2989 0.184 92.4375 0.173333 92.7149 0.151999C93.0135 0.109332 93.3549 0.130666 93.7389 0.216C94.1442 0.279999 94.5175 0.461332 94.8589 0.759998C95.2215 1.03733 95.4775 1.50667 95.6269 2.168C95.8189 3.04267 96.0429 4.07733 96.2989 5.272C96.5762 6.44533 96.8109 7.8 97.0029 9.336C97.2162 10.872 97.3122 12.6 97.2909 14.52ZM106.837 17.368C106.773 16.6427 106.73 15.736 106.709 14.648C106.687 13.5387 106.677 12.3547 106.677 11.096C106.677 9.83733 106.687 8.62133 106.709 7.448C106.751 6.25333 106.794 5.19733 106.837 4.28C106.879 3.36267 106.922 2.70133 106.965 2.296C107.029 1.784 107.21 1.4 107.509 1.144C107.807 0.866666 108.138 0.674665 108.501 0.567999C108.885 0.461332 109.205 0.407999 109.461 0.407999C109.738 0.386666 109.877 0.375999 109.877 0.375999C109.877 0.375999 110.005 0.397333 110.261 0.439999C110.538 0.461332 110.837 0.514665 111.157 0.599998C111.477 0.685332 111.701 0.834665 111.829 1.048C112.106 1.47467 112.234 1.89067 112.213 2.296C112.213 2.68 112.191 3.18133 112.149 3.8C112.021 5.4 111.946 6.968 111.925 8.504C111.903 10.04 111.903 11.4373 111.925 12.696C111.946 13.9547 111.967 14.9573 111.989 15.704C112.031 16.4507 112.053 16.824 112.053 16.824C112.053 16.824 112.042 16.9413 112.021 17.176C112.021 17.3893 111.957 17.6347 111.829 17.912C111.701 18.1893 111.455 18.4453 111.093 18.68C110.73 18.8933 110.197 19 109.493 19C108.789 19 108.245 18.9253 107.861 18.776C107.498 18.6053 107.242 18.4133 107.093 18.2C106.965 17.9653 106.89 17.7733 106.869 17.624C106.847 17.4533 106.837 17.368 106.837 17.368ZM117.73 3.576C117.73 3.576 117.581 3.56533 117.282 3.544C116.983 3.52267 116.631 3.46933 116.226 3.384C115.821 3.27733 115.469 3.10667 115.17 2.872C114.871 2.63733 114.722 2.296 114.722 1.848C114.722 1.4 114.861 1.08 115.138 0.887999C115.415 0.674665 115.725 0.546666 116.066 0.504C116.429 0.439999 116.749 0.418666 117.026 0.439999C117.303 0.439999 117.442 0.439999 117.442 0.439999L125.09 0.535999C125.09 0.535999 125.261 0.546666 125.602 0.567999C125.943 0.589332 126.306 0.674665 126.69 0.823999C127.095 0.973332 127.394 1.21867 127.586 1.56C127.799 1.90133 127.757 2.392 127.458 3.032C127.266 3.45867 126.967 4.06667 126.562 4.856C126.157 5.64533 125.687 6.53067 125.154 7.512C124.642 8.472 124.119 9.44267 123.586 10.424C123.053 11.384 122.551 12.28 122.082 13.112C121.634 13.944 121.271 14.616 120.994 15.128C120.717 15.6187 120.578 15.864 120.578 15.864L125.282 15.832C125.282 15.832 125.399 15.832 125.634 15.832C125.869 15.832 126.146 15.8747 126.466 15.96C126.786 16.0453 127.063 16.1947 127.298 16.408C127.533 16.6 127.65 16.9093 127.65 17.336C127.65 17.7413 127.533 18.0613 127.298 18.296C127.063 18.5307 126.786 18.7013 126.466 18.808C126.146 18.8933 125.869 18.9467 125.634 18.968C125.399 18.9893 125.282 19 125.282 19H118.306C118.306 19 118.157 19 117.858 19C117.581 18.9787 117.239 18.936 116.834 18.872C116.429 18.808 116.045 18.6907 115.682 18.52C115.319 18.328 115.074 18.0613 114.946 17.72C114.775 17.2507 114.733 16.8027 114.818 16.376C114.925 15.9493 115.053 15.5973 115.202 15.32C115.373 15.0427 115.458 14.904 115.458 14.904L121.602 3.672L117.73 3.576ZM132.359 1.72C132.337 1.72 132.369 1.60267 132.455 1.368C132.561 1.112 132.796 0.866666 133.159 0.632C133.521 0.397333 134.119 0.269332 134.951 0.247999C135.697 0.226666 136.263 0.322666 136.647 0.535999C137.031 0.727999 137.287 0.919999 137.415 1.112C137.564 1.304 137.639 1.4 137.639 1.4C137.639 1.4 137.756 1.67733 137.991 2.232C138.225 2.78667 138.545 3.52267 138.951 4.44C139.356 5.336 139.804 6.33867 140.295 7.448C140.785 8.55733 141.276 9.688 141.767 10.84C142.279 11.9707 142.748 13.0373 143.175 14.04C143.623 15.0213 143.996 15.8533 144.295 16.536C144.593 17.1973 144.785 17.6133 144.871 17.784C145.063 18.1893 145.169 18.4773 145.191 18.648C145.212 18.8187 145.201 18.936 145.159 19C145.137 19.0427 145.127 19.0747 145.127 19.096C144.977 19.3947 144.679 19.6507 144.231 19.864C143.804 20.0987 143.281 20.2267 142.663 20.248C141.809 20.2693 141.191 20.1733 140.807 19.96C140.423 19.768 140.167 19.5653 140.039 19.352C139.932 19.16 139.889 19.0747 139.911 19.096C139.911 19.096 139.793 18.8507 139.559 18.36C139.345 17.8693 139.089 17.2827 138.791 16.6C138.492 15.896 138.215 15.256 137.959 14.68C137.959 14.68 137.809 14.68 137.511 14.68C137.233 14.68 136.903 14.68 136.519 14.68C136.135 14.68 135.793 14.68 135.495 14.68C135.217 14.68 135.079 14.68 135.079 14.68C134.993 14.9787 134.908 15.352 134.823 15.8C134.737 16.2267 134.663 16.6107 134.599 16.952C134.535 17.2933 134.503 17.464 134.503 17.464C134.503 17.464 134.449 17.592 134.343 17.848C134.257 18.104 134.012 18.36 133.607 18.616C133.201 18.872 132.529 19 131.591 19C130.887 19 130.353 18.9253 129.991 18.776C129.649 18.6053 129.415 18.4133 129.287 18.2C129.18 17.9867 129.127 17.8053 129.127 17.656C129.127 17.4853 129.127 17.4 129.127 17.4C129.169 17.1867 129.255 16.7493 129.383 16.088C129.532 15.4053 129.703 14.5947 129.895 13.656C130.108 12.696 130.321 11.6827 130.535 10.616C130.769 9.54933 130.993 8.49333 131.207 7.448C131.42 6.40267 131.612 5.45333 131.783 4.6C131.953 3.72533 132.092 3.032 132.199 2.52C132.305 1.98667 132.359 1.72 132.359 1.72ZM135.719 6.776C135.697 6.86133 135.676 7.032 135.655 7.288L135.527 8.184C135.484 8.67467 135.431 9.19733 135.367 9.752C135.303 10.3067 135.239 10.8293 135.175 11.32C135.132 11.576 135.1 11.736 135.079 11.8H135.495C135.751 11.8 136.028 11.7893 136.327 11.768C136.625 11.7467 136.892 11.736 137.127 11.736C137.041 11.5653 136.967 11.352 136.903 11.096C136.86 10.8187 136.807 10.5627 136.743 10.328C136.615 9.83733 136.465 9.32533 136.295 8.792C136.145 8.25867 136.007 7.75733 135.879 7.288C135.815 7.032 135.761 6.86133 135.719 6.776ZM147.914 17.272L146.442 3.32C146.442 3.32 146.41 3.256 146.346 3.128C146.303 3 146.293 2.82933 146.314 2.616C146.335 2.40267 146.453 2.17867 146.666 1.944C146.901 1.70933 147.295 1.496 147.85 1.304C148.597 1.02667 149.471 0.802666 150.474 0.632C151.498 0.44 152.575 0.386666 153.706 0.471998C154.858 0.557332 155.989 0.898665 157.098 1.496C157.759 1.83733 158.25 2.328 158.57 2.968C158.89 3.608 159.082 4.29067 159.146 5.016C159.21 5.74133 159.21 6.43467 159.146 7.096C159.103 7.75733 159.029 8.30133 158.922 8.728C158.837 9.15467 158.794 9.368 158.794 9.368C158.794 9.368 158.719 9.528 158.57 9.848C158.421 10.168 158.133 10.5307 157.706 10.936C157.301 11.32 156.703 11.6293 155.914 11.864L160.458 16.76C160.458 16.76 160.533 16.8453 160.682 17.016C160.831 17.1867 160.949 17.4 161.034 17.656C161.141 17.8907 161.119 18.136 160.97 18.392C160.842 18.6267 160.49 18.8293 159.914 19C159.317 19.1707 158.783 19.2133 158.314 19.128C157.866 19.0427 157.493 18.904 157.194 18.712C156.917 18.52 156.703 18.3387 156.554 18.168C156.405 17.9973 156.33 17.912 156.33 17.912L152.106 12.696L153.162 17.208C153.162 17.208 153.183 17.304 153.226 17.496C153.269 17.6667 153.247 17.8693 153.162 18.104C153.077 18.3387 152.863 18.552 152.522 18.744C152.181 18.9147 151.637 19 150.89 19C150.143 19 149.557 18.9147 149.13 18.744C148.725 18.5733 148.437 18.3707 148.266 18.136C148.095 17.9013 147.989 17.6987 147.946 17.528C147.925 17.3573 147.914 17.272 147.914 17.272ZM150.954 3.288L151.722 9.72C151.722 9.72 151.839 9.73067 152.074 9.752C152.33 9.77333 152.629 9.752 152.97 9.688C153.333 9.624 153.674 9.47467 153.994 9.24C154.335 8.984 154.613 8.6 154.826 8.088C155.039 7.55467 155.114 6.82933 155.05 5.912C154.986 5.03733 154.815 4.39733 154.538 3.992C154.261 3.56533 153.919 3.29867 153.514 3.192C153.109 3.064 152.682 3.032 152.234 3.096C151.786 3.13867 151.359 3.20267 150.954 3.288Z" fill="white"/>
</svg>
